Coordinates
version=1
nRows=6
nColumns=107
inDegrees=yes

Units are S.I. units (second, meters, Newtons, ...)
If the header above contains a line with 'inDegrees', this indicates whether rotational values are in degrees (yes) or radians (no).

endheader
time	sternoclavicular_r2	sternoclavicular_r3	unrotscap_r3	unrotscap_r2	acromioclavicular_r2	acromioclavicular_r3	acromioclavicular_r1	unrothum_r1	unrothum_r3	unrothum_r2	elv_angle	shoulder_elv	shoulder1_r2	shoulder_rot	elbow_flexion	pro_sup	deviation	flexion	proximal_distal_r1	proximal_distal_r3	cmc_flexion	cmc_abduction	mp_flexion	ip_flexion	mcp2_flexion	mcp2_abduction	pm2_flexion	md2_flexion	mcp3_flexion	mcp3_abduction	pm3_flexion	md3_flexion	mcp4_flexion	mcp4_abduction	pm4_flexion	md4_flexion	mcp5_flexion	mcp5_abduction	pm5_flexion	md5_flexion	bicpt_tx	bicpt_ty	bicpt_tz	bicpt2_tx	bicpt2_ty	bicpt2_tz	ptpt_tx	ptpt_ty	ptpt_tz	FCUpt_tx	FCUpt_ty	FCUpt_tz	EDCpt_tx	EDCpt_ty	EDCpt_tz	APLpt_tx	APLpt_ty	APLpt_tz	FPLpt_tx	FPLpt_ty	FPLpt_tz	FPLpt2_tx	FPLpt2_ty	FPLpt2_tz	PEC1pt2_tx	PEC1pt2_ty	PEC1pt2_tz	PEC1pt3_tx	PEC1pt3_ty	PEC1pt3_tz	PEC2pt2_tx	PEC2pt2_ty	PEC2pt2_tz	PEC2pt3_tx	PEC2pt3_ty	PEC2pt3_tz	PEC3pt2_tx	PEC3pt2_ty	PEC3pt2_tz	PEC3pt3_tx	PEC3pt3_ty	PEC3pt3_tz	DELT2pt2a_tx	DELT2pt2a_ty	DELT2pt2a_tz	DELT2pt2_tx	DELT2pt2_ty	DELT2pt2_tz	LAT1pt2_tx	LAT1pt2_ty	LAT1pt2_tz	LAT1pt3_tx	LAT1pt3_ty	LAT1pt3_tz	LAT2pt2_tx	LAT2pt2_ty	LAT2pt2_tz	LAT2pt3_tx	LAT2pt3_ty	LAT2pt3_tz	LAT3pt2_tx	LAT3pt2_ty	LAT3pt2_tz	LAT3pt3_tx	LAT3pt3_ty	LAT3pt3_tz
      0.00000000	     -0.32463649	      0.13750069	     -0.13750069	      0.32463649	     -0.06573229	      0.53122521	      0.23878207	     -0.23878207	     -0.53122521	      0.06573229	     98.54055012	     76.86057404	     -1.71985705	    -19.60612733	     28.25035430	     12.63767950	     -0.05350570	     -0.49370716	     -0.07495803	     -0.24685358	     14.08320669	     10.00200631	     -0.62543335	     11.56768423	     17.52194486	     13.53963107	      5.76929674	    -24.87857362	     -8.89469271	      1.98404504	      6.73817910	     11.50226856	    -26.55343417	     -4.94731891	     -1.84483013	     20.41633667	    -46.04756531	    -14.43443341	     -7.32310990	      5.08407451	      0.00083443	     -0.03083792	     -0.00482154	      0.01566687	     -0.01787435	     -0.00986613	      0.00661622	     -0.06550380	     -0.00106803	      0.00514097	     -0.18395797	      0.00008974	     -0.00151652	      0.00038271	      0.00013997	      0.00030101	      0.00012040	      0.00060201	      0.00038529	      0.00115586	      0.00065017	      0.00002574	     -0.00024189	     -0.00029027	      0.00251932	      0.00883897	      0.00614885	     -0.00824117	      0.01989837	     -0.01887356	      0.00251932	      0.00883897	      0.00614885	      0.00055510	      0.01844655	     -0.00969298	      0.00397411	      0.00491524	      0.01603126	      0.00000000	      0.00790155	      0.00000000	     -0.00721636	     -0.03334898	     -0.00651587	      0.01354793	     -0.00041987	     -0.00316269	     -0.00089671	      0.01503052	     -0.00614885	      0.00247662	      0.02169178	     -0.01793415	     -0.00602075	      0.01302361	     -0.00550835	     -0.01255390	      0.02749903	     -0.03078696	     -0.02357060	      0.01456082	     -0.00738716	     -0.01562833	      0.03176906	     -0.03847302
      0.03333333	     -0.32774019	      0.13881528	     -0.13881528	      0.32774019	     -0.06636072	      0.53630401	      0.24106496	     -0.24106496	     -0.53630401	      0.06636072	     97.93206107	     77.59540282	     -1.70923691	    -15.90848517	     28.10231089	      8.85263628	     -0.04875070	     -0.52365010	     -0.06810648	     -0.26182505	     14.08622851	     10.96141361	      0.68836203	      9.70732347	     18.20858320	     13.63105558	      5.78210028	    -25.93886805	     -8.75991898	      2.14544479	      6.50277841	     11.70798978	    -25.98542113	     -5.11896157	     -2.79774042	     21.62574438	    -45.75281949	    -14.43848475	     -7.09719513	      5.09326124	      0.00082954	     -0.03082095	     -0.00481881	      0.01540656	     -0.01783413	     -0.01011498	      0.00689589	     -0.06532296	     -0.00076313	      0.00479406	     -0.18400528	      0.00019997	     -0.00106231	      0.00026291	      0.00010715	      0.00030631	      0.00012252	      0.00061262	      0.00039208	      0.00117624	      0.00066163	      0.00002575	     -0.00024204	     -0.00029045	      0.00254341	      0.00892348	      0.00620764	     -0.00831996	      0.02008860	     -0.01905400	      0.00254341	      0.00892348	      0.00620764	      0.00056041	      0.01862291	     -0.00978565	      0.00400164	      0.00496223	      0.01609741	      0.00000000	      0.00805447	      0.00000000	     -0.00728535	     -0.03366781	     -0.00664278	      0.01130328	     -0.00030973	     -0.00201423	     -0.00090528	      0.01517422	     -0.00620764	      0.00250030	      0.02189917	     -0.01810561	     -0.00607831	      0.01314812	     -0.00556101	     -0.01267393	      0.02776193	     -0.03108130	     -0.02379594	      0.01470003	     -0.00745779	     -0.01577775	      0.03207279	     -0.03884084
      0.06666667	     -0.32767669	      0.13878838	     -0.13878838	      0.32767669	     -0.06634786	      0.53620010	      0.24101826	     -0.24101826	     -0.53620010	      0.06634786	     97.93797807	     77.58036908	     -1.70934018	    -15.90175489	     28.10542484	      8.85549806	     -0.04877552	     -0.52362760	     -0.06814251	     -0.26181380	     14.08708573	     10.96398491	      0.68883344	      9.70770759	     18.20971456	     13.63151413	      5.78211718	    -25.93860155	     -8.76241274	      2.14601747	      6.50239691	     11.70780416	    -25.98542064	     -5.11998347	     -2.79785073	     21.62553277	    -45.75086064	    -14.43848159	     -7.09630031	      5.09333215	      0.00082964	     -0.03082131	     -0.00481887	      0.01540669	     -0.01783498	     -0.01011475	      0.00689568	     -0.06532310	     -0.00076336	      0.00479434	     -0.18400523	      0.00019991	     -0.00106266	      0.00026301	      0.00010715	      0.00030613	      0.00012245	      0.00061225	      0.00039184	      0.00117553	      0.00066123	      0.00002573	     -0.00024193	     -0.00029032	      0.00254291	      0.00892175	      0.00620643	     -0.00831835	      0.02008471	     -0.01905031	      0.00254291	      0.00892175	      0.00620643	      0.00056030	      0.01861930	     -0.00978375	      0.00400108	      0.00496127	      0.01609607	      0.00000000	      0.00805134	      0.00000000	     -0.00728394	     -0.03366129	     -0.00664018	      0.01129902	     -0.00030953	     -0.00201235	     -0.00090511	      0.01517128	     -0.00620643	      0.00249981	      0.02189492	     -0.01810210	     -0.00607713	      0.01314557	     -0.00555993	     -0.01267147	      0.02775656	     -0.03107527	     -0.02379133	      0.01469718	     -0.00745634	     -0.01577469	      0.03206658	     -0.03883332
      0.10000000	     -0.32807962	      0.13895904	     -0.13895904	      0.32807962	     -0.06642945	      0.53685944	      0.24131463	     -0.24131463	     -0.53685944	      0.06642945	     97.90234538	     77.67576636	     -1.70871827	    -15.49785770	     28.00270464	      8.30583172	     -0.05252356	     -0.53432841	     -0.07353912	     -0.26716421	     14.61026653	     12.38921351	      0.00548013	      9.67520614	     18.63571094	     13.70306192	      5.75039215	    -26.61758075	     -9.21588250	      2.36541852	      6.74511599	     11.41072696	    -25.84835776	     -5.43197724	     -3.21234786	     21.46356806	    -45.63284507	    -14.44640898	     -6.50604794	      5.07220858	      0.00082624	     -0.03080954	     -0.00481697	      0.01536615	     -0.01780707	     -0.01014921	      0.00693629	     -0.06529683	     -0.00071908	      0.00474433	     -0.18401176	      0.00021682	     -0.00099670	      0.00024598	      0.00010174	      0.00030760	      0.00012304	      0.00061519	      0.00039372	      0.00118117	      0.00066441	      0.00002462	     -0.00024667	     -0.00029601	      0.00254604	      0.00893272	      0.00621407	     -0.00832858	      0.02010941	     -0.01907373	      0.00254604	      0.00893272	      0.00621407	      0.00056099	      0.01864220	     -0.00979579	      0.00400464	      0.00496737	      0.01610456	      0.00000000	      0.00807130	      0.00000000	     -0.00729290	     -0.03370268	     -0.00665674	      0.01104272	     -0.00029786	     -0.00190094	     -0.00090622	      0.01518994	     -0.00621407	      0.00250289	      0.02192185	     -0.01812436	     -0.00608461	      0.01316174	     -0.00556677	     -0.01268705	      0.02779069	     -0.03111349	     -0.02382059	      0.01471525	     -0.00746551	     -0.01579409	      0.03210601	     -0.03888107
      0.13333333	     -0.32743588	      0.13868638	     -0.13868638	      0.32743588	     -0.06629910	      0.53580604	      0.24084113	     -0.24084113	     -0.53580604	      0.06629910	     98.05269881	     77.52335444	     -1.71134243	    -16.33027130	     27.96764082	      9.31464256	     -0.05586284	     -0.52308492	     -0.07836787	     -0.26154246	     15.20031319	     12.42929103	     -0.57460931	      9.67721874	     18.10363845	     13.70497365	      5.73928973	    -26.75732226	     -9.97752882	      2.44794092	      7.03089440	     11.79262819	    -26.37770363	     -5.70260254	     -3.50607412	     21.51933297	    -45.86044632	    -14.44884169	     -6.64029871	      5.08243616	      0.00082508	     -0.03080552	     -0.00481633	      0.01544002	     -0.01779755	     -0.01008564	      0.00686175	     -0.06534503	     -0.00080034	      0.00483618	     -0.18399971	      0.00018596	     -0.00111775	      0.00027730	      0.00011155	      0.00030606	      0.00012242	      0.00061212	      0.00039176	      0.00117528	      0.00066109	      0.00002333	     -0.00025168	     -0.00030201	      0.00254105	      0.00891519	      0.00620187	     -0.00831223	      0.02006995	     -0.01903631	      0.00254105	      0.00891519	      0.00620187	      0.00055989	      0.01860562	     -0.00977656	      0.00399895	      0.00495763	      0.01609098	      0.00000000	      0.00803942	      0.00000000	     -0.00727859	     -0.03363655	     -0.00663029	      0.01156861	     -0.00032200	     -0.00213358	     -0.00090444	      0.01516014	     -0.00620187	      0.00249798	      0.02187883	     -0.01808880	     -0.00607267	      0.01313591	     -0.00555585	     -0.01266216	      0.02773616	     -0.03105244	     -0.02377385	      0.01468638	     -0.00745086	     -0.01576310	      0.03204301	     -0.03880478
      0.16666667	     -0.32681479	      0.13842332	     -0.13842332	      0.32681479	     -0.06617335	      0.53478971	      0.24038429	     -0.24038429	     -0.53478971	      0.06617335	     98.15254674	     77.37630562	     -1.71308511	    -17.19904792	     28.07080940	     10.51942070	     -0.05480082	     -0.50036892	     -0.07683045	     -0.25018446	     15.18008001	     11.95120203	     -0.28558071	      8.77053509	     17.44856368	     13.71818365	      5.89033662	    -27.93329702	    -10.71173326	      2.22182876	      7.07194483	     12.22019089	    -26.49071184	     -5.78001337	     -3.93025493	     22.23534958	    -45.81942420	    -14.45950428	     -6.60966358	      5.09095651	      0.00082850	     -0.03081734	     -0.00481823	      0.01552519	     -0.01782557	     -0.01000785	      0.00677273	     -0.06540259	     -0.00089740	      0.00494629	     -0.18398494	      0.00015011	     -0.00126233	      0.00031513	      0.00012255	      0.00030228	      0.00012091	      0.00060456	      0.00038692	      0.00116076	      0.00065293	      0.00002337	     -0.00025148	     -0.00030178	      0.00253623	      0.00889828	      0.00619011	     -0.00829647	      0.02003188	     -0.01900020	      0.00253623	      0.00889828	      0.00619011	      0.00055883	      0.01857033	     -0.00975802	      0.00399345	      0.00494822	      0.01607782	      0.00000000	      0.00800872	      0.00000000	     -0.00726478	     -0.03357275	     -0.00660481	      0.01210752	     -0.00034751	     -0.00238912	     -0.00090272	      0.01513138	     -0.00619011	      0.00249324	      0.02183733	     -0.01805449	     -0.00606115	      0.01311100	     -0.00554531	     -0.01263814	      0.02768355	     -0.03099354	     -0.02372875	      0.01465852	     -0.00743673	     -0.01573320	      0.03198223	     -0.03873117
